<svg width="300" height="300" viewBox="0 0 300 300" fill="none" xmlns="http://www.w3.org/2000/svg">
<rect width="300" height="300" fill="#F5F5F5"/>
<path d="M125.084 169.778C125.575 172.741 128.148 175 131.25 175H168.75C172.202 175 175 172.202 175 168.75V156.844M125.084 169.778C125.029 169.444 125 169.1 125 168.75V131.25C125 127.798 127.798 125 131.25 125H168.75C172.202 125 175 127.798 175 131.25V156.844M125.084 169.778L137.024 157.838C139.149 155.979 142.257 155.776 144.606 157.342L146.198 158.402C148.462 159.912 151.443 159.783 153.569 158.083L161.844 151.462C163.953 149.775 166.892 149.643 169.134 151.089C169.382 151.249 169.603 151.448 169.813 151.657L175 156.844M146.875 140.625C146.875 144.077 144.077 146.875 140.625 146.875C137.173 146.875 134.375 144.077 134.375 140.625C134.375 137.173 137.173 134.375 140.625 134.375C144.077 134.375 146.875 137.173 146.875 140.625Z" stroke="#8A8A8A" stroke-width="1.5" stroke-linecap="round" stroke-linejoin="round"/>
</svg>
