<svg width="25" height="32" viewBox="0 0 25 32" fill="none" xmlns="http://www.w3.org/2000/svg">
<path fill-rule="evenodd" clip-rule="evenodd" d="M13.5909 1.43971C13.2333 1.25643 12.8123 1.25643 12.4547 1.43971L10.313 4.48441L8.12549 5.76566L2.29207 6.64804C1.86169 6.8686 1.58984 7.31947 1.58984 7.81266V15.6252C1.58984 19.0916 2.68301 21.994 4.64236 24.3701C6.58128 26.7212 8.96557 28.4379 12.188 29.7891C12.4962 29.9184 13.7548 29.9184 14.063 29.7891C17.2854 28.4379 19.4642 26.7212 21.4032 24.3701C23.3626 21.994 24.4557 19.0916 24.4557 15.6252V7.81266C24.4557 7.31947 24.1838 6.8686 23.7535 6.64804L17.5005 5.76566L15.938 4.48441L13.5909 1.43971ZM2.81299 15.6252V7.81266L9.37549 7.04691L11.563 5.12504L13.0228 2.88285L14.688 5.12504L16.8755 7.04691L23.1255 7.81266V15.6252C23.1255 18.48 22.1948 21.4799 20.6255 23.3829C19.1221 25.206 16.2505 27.2266 13.1255 28.1875C10.313 27.2266 7.12894 25.206 5.62549 23.3829C4.05617 21.4799 2.81299 18.48 2.81299 15.6252ZM16.563 15.375C17.0212 14.8306 18.9692 12.6417 18.438 12.1719C17.813 11.6193 15.1463 15.1509 14.688 15.6954L11.563 19.2188L10.0005 17.9375L8.12549 16.336C7.6246 15.8325 7.05425 15.1819 6.56299 15.6954C6.07173 16.2088 6.99961 16.7934 7.50049 17.2969L10.6387 20.461C10.8894 20.7129 11.2305 20.8473 11.5811 20.8323C11.9318 20.8173 12.2608 20.6543 12.4901 20.3819L16.563 15.375Z" fill="#007CCC"/>
</svg>
